<svg width="323" height="658" viewBox="277 133 323 658" fill="none" xmlns="http://www.w3.org/2000/svg" role="img" aria-label="Nex Fit">
<path d="M526.756 153C530.995 154.635 533.892 158.271 537.177 161.067C558.115 178.893 571.211 202.124 577.755 229.304C581.418 244.517 580.778 260.283 580.318 275.878C579.809 293.135 575.792 309.644 569.851 325.662C561.89 347.126 550.279 366.315 536.617 384.209C536.349 384.56 536.078 384.915 535.773 385.229C532.5 388.589 531.945 391.646 534.305 396.486C540.539 409.276 540.247 423.125 538.101 436.97C534.497 460.21 524.548 480.773 513.541 500.875C506.242 514.205 506.53 510.994 517.565 518.472C528.528 525.901 539.087 533.864 547.321 544.662C562.176 564.142 562.704 585.551 548.227 605.355C537.014 620.694 523.966 634.059 506.774 642.104C505.624 642.643 504.356 643.107 503.558 644.928C510.816 654.994 516.59 666.105 518.872 679.044C516.251 679.719 515.168 678.042 513.954 676.965C504.398 668.491 493.519 662.143 482.882 655.398C480.853 654.112 479.216 654.771 477.262 655.58C459.709 662.848 441.696 668.603 423.387 673.347C423.005 673.445 422.562 673.282 421.906 673.217C420.796 670.501 422.74 668.748 423.848 666.843C429.176 657.68 436.204 650.013 443.357 642.451C444.617 641.12 446.212 639.953 446.772 637.659C442.354 634.662 437.706 632.13 432.94 629.814C430.68 628.716 429.464 630.05 428.45 631.889C419.426 648.26 410.625 664.734 404.503 682.634C396.832 705.062 393.012 728.095 394.274 751.949C394.495 756.123 395.225 760.269 395.774 764.42C396.063 766.595 396.758 768.761 395.486 771.636C387.808 764.011 382.002 755.509 377.079 745.866C365.753 725.046 362.23 702.959 364.557 679.604C367.132 653.754 375.932 630.158 388.043 607.805C390.171 603.877 389.534 601.859 386.325 599.265C369.183 585.405 357.297 567.568 350.954 545.814C344.769 524.6 349.386 505.511 361.958 488.221C366.169 482.43 366.415 482.422 362.01 476.533C355.169 467.388 350.354 457.471 349.188 445.661C347.592 429.516 352.115 415.111 359.925 401.63C369.984 384.267 384.806 372.577 401.821 363.613C403.178 362.899 404.856 362.548 405.717 359.636C369.059 345.55 332.986 342.124 297.59 363.56C296.348 361.463 297.358 360.011 297.981 358.581C310.049 330.865 330.69 314.345 359.088 310.097C374.256 307.827 389.792 309.004 405.1 312.199C422.411 315.813 439.033 321.467 455.305 328.466C458.759 329.952 461.877 329.367 465.062 327.323C483.413 315.545 500.979 302.715 515.388 285.707C526.134 273.023 534.119 258.598 539.718 242.634C544.37 229.367 542.587 215.968 540.849 202.627C538.783 186.77 534.384 171.585 527.293 157.333C526.732 156.206 525.882 155.017 526.756 153ZM488.002 565.008C475.531 557.465 478.615 556.659 469.279 569.407C464.931 575.899 460.733 582.511 456.176 588.837C453.672 592.313 454.274 594.667 457.338 597.087C462.922 601.496 468.486 605.939 473.92 610.548C475.982 612.297 477.603 612.175 479.596 610.593C483.236 607.702 487.024 605.019 490.678 602.147C496.5 597.57 502.437 593.126 507.995 588.213C512.274 584.431 512.068 582.445 507.957 578.895C501.764 573.545 494.929 569.197 488.002 565.008ZM398.888 514.085C396.984 512.729 395.248 512.827 393.565 514.697C390.722 517.855 387.789 520.925 384.835 523.968C383.15 525.704 382.998 527.396 384.175 529.582C388.057 536.795 392.578 543.485 398.601 549.798C401.824 553.411 405.332 556.693 408.952 559.862C413.433 563.785 414.466 563.779 417.701 558.911C422.112 552.275 426.321 545.488 430.828 538.927C432.952 535.835 432.506 534.058 429.381 532.238C419.163 526.288 408.589 520.995 398.888 514.085ZM484.838 441.291C483.67 440.307 482.724 441.198 481.819 441.952C470.334 451.533 458.849 461.114 446.907 471.093C442.597 474.771 442.621 475.312 447.465 478.075C452.594 481.002 457.788 483.805 462.894 486.776C464.826 487.901 466.288 487.983 467.577 485.832C475.367 472.839 481.61 459.125 485.277 444.196C485.538 443.134 485.733 442.046 484.838 441.291ZM462.162 394.799C461.86 390.924 454.277 386.441 450.949 388.173C442.131 392.761 433.2 397.153 424.624 402.204C412.689 409.233 400.705 416.299 390.716 427.369C385.95 433.222 385.955 434.274 391.346 439.344C394.105 441.939 397.111 444.242 399.912 446.79C401.646 448.367 402.973 448.203 404.736 446.669C408.69 443.228 412.836 440.029 416.922 436.757C431.457 425.115 445.552 412.919 458.888 399.776C460.293 398.391 462.35 397.211 462.162 394.799ZM447.984 242.688C474.865 230.34 501.135 253.974 497.784 281.873C496.047 296.332 488.265 306.87 474.748 311.58C460.68 316.482 448.009 313.239 437.842 301.993C421.87 284.325 424.63 258.296 443.487 245C444.774 244.093 446.265 243.505 447.984 242.688ZM466.248 246.885C461.881 248.847 460.361 251.793 461.346 256.384C462.647 262.448 470.027 269.252 475.99 269.887C483.116 270.645 486.985 265.114 484.171 258.094C480.967 250.101 475.052 246.584 466.248 246.885Z" fill="url(#paint0_radial_2354_195)"/>
<defs>
<radialGradient id="paint0_radial_2354_195" cx="0" cy="0" r="1" gradientUnits="userSpaceOnUse" gradientTransform="translate(453.5 442.5) rotate(92.5507) scale(329.462 151.075)">
<stop stop-color="#049200"/>
<stop offset="1" stop-color="#035B00"/>
</radialGradient>
</defs>
</svg>
